<svg width="25" height="25" viewBox="0 0 25 25" fill="none" xmlns="http://www.w3.org/2000/svg">
<g clip-path="url(#clip0)">
<path d="M12.1683 7.2392L4.1661 14.6537V22.6562C4.1661 22.8634 4.23926 23.0621 4.36949 23.2086C4.49973 23.3551 4.67636 23.4374 4.86054 23.4374L9.72426 23.4233C9.90783 23.4222 10.0836 23.3395 10.2131 23.1931C10.3425 23.0467 10.4152 22.8486 10.4152 22.642V17.9687C10.4152 17.7615 10.4884 17.5628 10.6186 17.4163C10.7489 17.2697 10.9255 17.1874 11.1097 17.1874H13.8875C14.0716 17.1874 14.2483 17.2697 14.3785 17.4163C14.5087 17.5628 14.5819 17.7615 14.5819 17.9687V22.6386C14.5816 22.7414 14.5994 22.8433 14.6341 22.9383C14.6689 23.0334 14.72 23.1198 14.7845 23.1926C14.849 23.2654 14.9257 23.3232 15.0101 23.3626C15.0945 23.402 15.185 23.4223 15.2763 23.4223L20.1383 23.4374C20.3225 23.4374 20.4991 23.3551 20.6294 23.2086C20.7596 23.0621 20.8328 22.8634 20.8328 22.6562V14.6484L12.8323 7.2392C12.7383 7.15391 12.6211 7.1074 12.5003 7.1074C12.3795 7.1074 12.2623 7.15391 12.1683 7.2392ZM24.8085 12.2787L21.18 8.914V2.15082C21.18 1.99542 21.1251 1.84638 21.0274 1.7365C20.9298 1.62661 20.7973 1.56488 20.6592 1.56488H18.2286C18.0905 1.56488 17.958 1.62661 17.8603 1.7365C17.7626 1.84638 17.7078 1.99542 17.7078 2.15082V5.69623L13.8219 2.09955C13.449 1.75432 12.9811 1.56557 12.4981 1.56557C12.0152 1.56557 11.5473 1.75432 11.1743 2.09955L0.187798 12.2787C0.135058 12.3278 0.0914242 12.388 0.0593895 12.4561C0.0273548 12.5241 0.00754699 12.5985 0.00109794 12.6752C-0.00535111 12.7518 0.00168497 12.8291 0.0218041 12.9027C0.0419233 12.9762 0.0747313 13.0446 0.118353 13.1039L1.22512 14.6176C1.26863 14.6771 1.32214 14.7264 1.38259 14.7626C1.44304 14.7988 1.50925 14.8213 1.57742 14.8287C1.64559 14.8361 1.71439 14.8283 1.77988 14.8057C1.84537 14.7831 1.90626 14.7463 1.95907 14.6972L12.1683 5.23724C12.2623 5.15195 12.3795 5.10544 12.5003 5.10544C12.6211 5.10544 12.7383 5.15195 12.8323 5.23724L23.042 14.6972C23.0947 14.7463 23.1555 14.7832 23.2209 14.8058C23.2863 14.8285 23.355 14.8364 23.4231 14.8291C23.4912 14.8219 23.5574 14.7996 23.6179 14.7635C23.6783 14.7275 23.7319 14.6784 23.7755 14.6191L24.8822 13.1054C24.9258 13.0458 24.9585 12.977 24.9784 12.9031C24.9983 12.8292 25.005 12.7516 24.9981 12.6748C24.9912 12.598 24.971 12.5235 24.9384 12.4555C24.9059 12.3875 24.8617 12.3275 24.8085 12.2787Z" fill="#C0C0C0"/>
</g>
<defs>
<clipPath id="clip0">
<rect width="25" height="25" fill="white"/>
</clipPath>
</defs>
</svg>
