<svg width="138" height="23" viewBox="0 0 138 23" fill="none" xmlns="http://www.w3.org/2000/svg">
<path d="M0 0.782959H6.526C12.4348 0.782959 17.4562 3.20103 17.4562 11.293C17.4562 19.6729 12.3544 22.0909 6.526 22.0909H0V0.782959ZM6.82178 17.4546C10.8772 17.4546 12.086 15.669 12.086 11.3499C12.086 7.40469 10.8499 5.56227 6.76878 5.56227H5.34459V17.4546H6.82178Z" fill="#373737"/>
<path d="M18.02 17.9438C18.02 14.4882 21.0001 12.3872 26.9106 12.0994V11.8978C26.9106 11.148 26.5686 10.6016 25.3257 10.6016C23.6604 10.6016 22.1028 11.3496 20.8941 12.2717L18.7193 9.04705C20.0358 7.78026 22.2909 6.36865 26.1583 6.36865C30.4018 6.36865 32.0927 8.4989 32.0927 12.8474V18.3472C32.0927 20.1914 32.2004 21.3134 32.4962 22.0907H27.2303C27.0153 21.3645 26.9069 20.6068 26.9089 19.8449C25.7274 21.4289 24.2502 22.3217 22.1216 22.3217C20.0614 22.3217 18.02 20.9742 18.02 17.9438ZM26.9106 17.1959V15.007C24.3323 15.0931 23.2039 15.8136 23.2039 16.9942C23.2039 17.7422 23.7168 18.0942 24.3853 18.0942C25.7001 18.0887 26.4524 17.656 26.9089 17.1959H26.9106Z" fill="#373737"/>
<path d="M36.0401 17.4546V10.7449H33.7046V6.65674H36.0401V1.47412H41.3573V6.65674H45.0366V10.7449H41.3573V16.1879C41.3573 17.8286 41.7334 18.2319 43.238 18.2319C43.7082 18.2309 44.1767 18.1731 44.6348 18.0596V22.0341C44.3664 22.1203 42.4327 22.2926 41.3864 22.2926C36.4966 22.2926 36.0401 20.4502 36.0401 17.4546Z" fill="#373737"/>
<path d="M45.9766 17.9438C45.9766 14.4882 48.9566 12.3872 54.8671 12.0994V11.8978C54.8671 11.148 54.5252 10.6016 53.2822 10.6016C51.6169 10.6016 50.0594 11.3496 48.8523 12.2717L46.6758 9.04705C47.9923 7.78026 50.2474 6.36865 54.1148 6.36865C58.3584 6.36865 60.0493 8.4989 60.0493 12.8474V18.3472C60.0493 20.1914 60.157 21.3134 60.4528 22.0907H55.1885C54.9729 21.3646 54.8639 20.6069 54.8654 19.8449C53.684 21.4289 52.2068 22.3217 50.0782 22.3217C48.018 22.3217 45.9766 20.9742 45.9766 17.9438ZM54.8671 17.1959V15.007C52.2888 15.0931 51.1604 15.8136 51.1604 16.9942C51.1604 17.7422 51.6734 18.0942 52.3419 18.0942C53.6566 18.0887 54.4089 17.656 54.8654 17.1959H54.8671Z" fill="#373737"/>
<path d="M60.0503 0.782959H62.0319L68.0278 19.583H68.0808L74.1076 0.782959H75.9798L68.9237 22.4154H67.108L60.0503 0.782959Z" fill="#373737"/>
<path d="M77.6108 1.28711H79.5924V3.43935H77.6108V1.28711ZM77.6656 6.99038H79.5462V22.3274H77.6656V6.99038Z" fill="#373737"/>
<path d="M81.5742 14.635C81.5742 9.19393 84.8227 6.6897 87.8438 6.6897C91.1829 6.6897 93.6791 9.42675 93.6791 14.6644V15.0365H83.4481C83.4737 18.8204 85.4826 20.9451 87.9532 20.9451C90.0972 20.9451 91.3179 19.9552 92.3985 18.1512L93.5662 19.1412C92.3181 21.2953 90.5537 22.6336 87.8386 22.6336C84.5064 22.6391 81.5742 19.8745 81.5742 14.635ZM91.8616 13.4416C91.6718 10.5322 90.369 8.37813 87.8164 8.37813C85.7545 8.37813 83.8276 9.97856 83.4737 13.4416H91.8616Z" fill="#373737"/>
<path d="M93.896 6.9812H95.8502L97.8591 14.5764C98.372 16.527 98.7003 17.8084 99.1893 19.7865H99.244C99.7569 17.6031 100.03 16.527 100.547 14.5764L102.501 6.9812H104.211L106.192 14.7231C106.705 16.5856 106.979 17.7791 107.44 19.7865H107.495C108.008 17.7204 108.282 16.6443 108.798 14.7817L110.887 6.9812H112.706L108.309 22.3182H106.572L103.342 9.72009H103.287L99.9997 22.3182H98.29L93.896 6.9812Z" fill="#373737"/>
<path d="M114.389 14.635C114.389 9.19393 117.646 6.6897 120.659 6.6897C123.998 6.6897 126.494 9.42675 126.494 14.6644V15.0365H116.263C116.289 18.8204 118.298 20.9451 120.768 20.9451C122.912 20.9451 124.133 19.9552 125.213 18.1512L126.381 19.1412C125.133 21.2953 123.369 22.6336 120.654 22.6336C117.321 22.6391 114.389 19.8745 114.389 14.635ZM124.677 13.4416C124.487 10.5322 123.184 8.37813 120.631 8.37813C118.569 8.37813 116.643 9.97856 116.289 13.4416H124.677Z" fill="#373737"/>
<path d="M130.022 6.98118H131.895V10.0079H131.949C133.062 8.11597 134.799 6.6897 137.622 6.6897H137.956L137.764 8.55229C137.764 8.55229 137.251 8.52296 137.195 8.52296C134.861 8.52296 133.014 9.9199 131.895 12.3361V22.3182H130.022V6.98118Z" fill="#373737"/>
</svg>
