<svg width="60" height="52" viewBox="0 0 60 52" fill="none" xmlns="http://www.w3.org/2000/svg">
<g clip-path="url(#clip0)">
<path d="M25.8473 5.73047H2.92761V51.5689H25.8473C38.5051 51.5689 48.767 41.308 48.767 28.6501C48.7661 15.9923 38.5042 5.73047 25.8473 5.73047Z" fill="#194981"/>
<path d="M55.6708 17.5366L54.6157 21.9863L59.0654 23.0414L60.1205 18.5917L55.6708 17.5366Z" fill="#2AA4D7"/>
<path d="M60.0887 18.5352L59.0493 23.0028L54.5815 21.9634L60.0887 18.5352Z" fill="#205C84"/>
<path d="M42.9099 13.3534L31.5033 24.8655L14.2138 5.73036L9.89234 0H0L2.92411 5.78175L20.0505 46.3134L48.7599 28.5854C48.7536 22.9606 46.6703 17.5364 42.9099 13.3534Z" fill="#F4F9F5"/>
<path d="M48.8579 5.92271L49.0706 11.2393L54.3871 11.0266L54.1744 5.71005L48.8579 5.92271Z" fill="#88448E"/>
<path d="M54.2874 5.77539L54.4885 11.0884L49.1755 11.2896L54.2874 5.77539Z" fill="#5A2B5E"/>
<path d="M49.9682 25.1724L48.7609 28.6064L52.1949 29.8137L53.4022 26.3797L49.9682 25.1724Z" fill="#98BC4D"/>
<path d="M53.4004 26.377L52.1926 29.8105L48.759 28.6037L53.4004 26.377Z" fill="#266A43"/>
<path d="M42.2936 9.13948L42.8822 13.3276L47.0704 12.739L46.4818 8.55087L42.2936 9.13948Z" fill="#E3A51A"/>
<path d="M46.4845 8.55078L47.0728 12.7393L42.8843 13.3277L46.4845 8.55078Z" fill="#D67C1C"/>
<path d="M49.195 16.3605L48.8313 19.3315L51.8023 19.6953L52.1661 16.7242L49.195 16.3605Z" fill="#C40059"/>
<path d="M52.1634 16.7222L51.8001 19.6932L48.8281 19.3299L52.1634 16.7222Z" fill="#961137"/>
<path d="M56.6451 11.8274L56.3895 14.5356L59.0987 14.7913L59.3542 12.083L56.6451 11.8274Z" fill="#E09E4B"/>
<path d="M59.3531 12.082L59.0979 14.7899L56.3892 14.5356L59.3531 12.082Z" fill="#973235"/>
<path d="M42.9099 13.3534L31.5334 28.6988L14.2138 5.73036L9.89234 0H0L2.92411 5.78176L21.4638 42.388L48.7643 28.5854C48.7568 22.96 46.6719 17.5357 42.9099 13.3534Z" fill="url(#paint0_linear)"/>
</g>
<defs>
<linearGradient id="paint0_linear" x1="0" y1="21.1945" x2="48.7643" y2="21.1945" gradientUnits="userSpaceOnUse">
<stop stop-color="#1F5DA6"/>
<stop offset="1" stop-color="#009DE0"/>
</linearGradient>
<clipPath id="clip0">
<rect width="60" height="51.5688" fill="white"/>
</clipPath>
</defs>
</svg>
