<svg width="25" height="25" viewBox="0 0 25 25" fill="none" xmlns="http://www.w3.org/2000/svg">
<path d="M3.75 10.9375C5.12891 10.9375 6.25 9.53613 6.25 7.8125C6.25 6.08887 5.12891 4.6875 3.75 4.6875C2.37109 4.6875 1.25 6.08887 1.25 7.8125C1.25 9.53613 2.37109 10.9375 3.75 10.9375ZM21.25 10.9375C22.6289 10.9375 23.75 9.53613 23.75 7.8125C23.75 6.08887 22.6289 4.6875 21.25 4.6875C19.8711 4.6875 18.75 6.08887 18.75 7.8125C18.75 9.53613 19.8711 10.9375 21.25 10.9375ZM22.5 12.5H20C19.3125 12.5 18.6914 12.8467 18.2383 13.4082C19.8125 14.4873 20.9297 16.4355 21.1719 18.75H23.75C24.4414 18.75 25 18.0518 25 17.1875V15.625C25 13.9014 23.8789 12.5 22.5 12.5ZM12.5 12.5C14.918 12.5 16.875 10.0537 16.875 7.03125C16.875 4.00879 14.918 1.5625 12.5 1.5625C10.082 1.5625 8.125 4.00879 8.125 7.03125C8.125 10.0537 10.082 12.5 12.5 12.5ZM15.5 14.0625H15.1758C14.3633 14.5508 13.4609 14.8438 12.5 14.8438C11.5391 14.8438 10.6406 14.5508 9.82422 14.0625H9.5C7.01562 14.0625 5 16.582 5 19.6875V21.0938C5 22.3877 5.83984 23.4375 6.875 23.4375H18.125C19.1602 23.4375 20 22.3877 20 21.0938V19.6875C20 16.582 17.9844 14.0625 15.5 14.0625ZM6.76172 13.4082C6.30859 12.8467 5.6875 12.5 5 12.5H2.5C1.12109 12.5 0 13.9014 0 15.625V17.1875C0 18.0518 0.558594 18.75 1.25 18.75H3.82422C4.07031 16.4355 5.1875 14.4873 6.76172 13.4082Z" fill="#248DF4"/>
</svg>
